  <svg
              xmlns="http://www.w3.org/2000/svg"
              width="24"
              height="24"
              viewBox="0 0 24 24"
              fill="none"
            >
              <path
                d="M12.96 5.28L19.3425 11.6625C20.1 12.42 20.1 13.6425 19.3425 14.4L13.77 19.9725C13.0125 20.73 11.79 20.73 11.0325 19.9725L4.65002 13.59C4.29002 13.23 4.08002 12.735 4.08002 12.225V6.6525C4.08002 5.5875 4.95002 4.7175 6.01502 4.7175H11.5875C12.105 4.7175 12.6 4.92 12.96 5.28Z"
                stroke="#444444"
                stroke-width="0.7"
                strokeMiterlimit="10"
                stroke-linecap="round"
                stroke-linejoin="round"
              />
              <path
                d="M8.58004 10.2525C9.15579 10.2525 9.62254 9.78577 9.62254 9.21001C9.62254 8.63425 9.15579 8.16751 8.58004 8.16751C8.00428 8.16751 7.53754 8.63425 7.53754 9.21001C7.53754 9.78577 8.00428 10.2525 8.58004 10.2525Z"
                stroke="#444444"
                stroke-width="0.7"
                strokeMiterlimit="10"
                stroke-linecap="round"
                stroke-linejoin="round"
              />
            </svg>