 <svg xmlns="http://www.w3.org/2000/svg" width="16" height="16" viewBox="0 0 16 16" fill="none">
              <path d="M6.00004 11.3333H10M6.00004 9.33333H10M12.6664 6H9.73311C9.35974 6 9.17325 5.99999 9.03064 5.92733C8.9052 5.86341 8.80328 5.76145 8.73937 5.63601C8.66671 5.4934 8.66671 5.3067 8.66671 4.93333V2M12.6667 11.8667V6.43599C12.6667 6.12699 12.6668 5.97248 12.6335 5.82621C12.6039 5.6965 12.5553 5.57192 12.4888 5.45666C12.4139 5.32668 12.3089 5.21331 12.0989 4.98657L9.96684 2.68392C9.73351 2.43192 9.61673 2.30592 9.4779 2.21562C9.35485 2.13558 9.21914 2.07643 9.07681 2.04052C8.91623 2 8.74485 2 8.40142 2H5.46684C4.7201 2 4.34645 2 4.06124 2.14532C3.81036 2.27316 3.60653 2.47714 3.4787 2.72803C3.33337 3.01324 3.33337 3.3866 3.33337 4.13334V11.8667C3.33337 12.6134 3.33337 12.9868 3.4787 13.272C3.60653 13.5229 3.81036 13.7268 4.06124 13.8547C4.34645 14 4.7201 14 5.46684 14H10.5335C11.2802 14 11.6533 14 11.9386 13.8547C12.1894 13.7268 12.3937 13.5229 12.5215 13.272C12.6668 12.9868 12.6667 12.6134 12.6667 11.8667Z" stroke="#0B0B0B" stroke-linecap="round" stroke-linejoin="round" />
            </svg>